<svg width="25" height="25" viewBox="0 0 25 25" fill="none" xmlns="http://www.w3.org/2000/svg">
<g clip-path="url(#clip0_13485_3705)">
<path d="M3.125 21.8744V17.7077C3.125 16.8836 3.36937 16.078 3.82721 15.3928C4.28505 14.7076 4.93579 14.1736 5.69715 13.8582C6.45851 13.5428 7.29629 13.4603 8.10454 13.6211C8.9128 13.7819 9.65523 14.1787 10.2379 14.7614C10.8207 15.3441 11.2175 16.0866 11.3783 16.8948C11.539 17.7031 11.4565 18.5408 11.1412 19.3022C10.8258 20.0636 10.2917 20.7143 9.60654 21.1721C8.92134 21.63 8.11576 21.8744 7.29167 21.8744H3.125Z" stroke="white" stroke-width="2" stroke-linecap="round" stroke-linejoin="round"/>
<path d="M21.8724 3.125C18.8993 3.53167 16.0911 4.73348 13.7443 6.60359C11.3975 8.47369 9.59917 10.9427 8.53906 13.75" stroke="white" stroke-width="2" stroke-linecap="round" stroke-linejoin="round"/>
<path d="M21.875 3.125C21.4683 6.09811 20.2665 8.90627 18.3964 11.2531C16.5263 13.5999 14.0573 15.3982 11.25 16.4583" stroke="white" stroke-width="2" stroke-linecap="round" stroke-linejoin="round"/>
<path d="M11.0391 9.375C13.0632 10.3092 14.6882 11.9342 15.6224 13.9583" stroke="white" stroke-width="2" stroke-linecap="round" stroke-linejoin="round"/>
</g>
<defs>
<clipPath id="clip0_13485_3705">
<rect width="25" height="25" fill="white"/>
</clipPath>
</defs>
</svg>
