<svg width="60" height="61" viewBox="0 0 60 61" fill="none" xmlns="http://www.w3.org/2000/svg">
<g clip-path="url(#clip0_7269_2232)">
<path d="M41.7692 5C42.3156 5.00007 42.843 5.2024 43.2513 5.56861C43.6596 5.93482 43.9205 6.43943 43.9844 6.98675L44 7.25V16.25C43.9999 16.8011 43.7993 17.333 43.4362 17.7448C43.0732 18.1567 42.5729 18.4198 42.0302 18.4843L41.7692 18.5H35.0769V20.75H41.7692C42.0868 20.7501 42.4007 20.8186 42.6899 20.9509C42.9791 21.0832 43.2369 21.2763 43.4462 21.5172C43.6555 21.7581 43.8113 22.0413 43.9034 22.3478C43.9954 22.6544 44.0215 22.9772 43.9799 23.2947L43.9353 23.5467L41.7045 32.5467C41.5938 32.9911 41.3512 33.3908 41.0092 33.6924C40.6671 33.994 40.242 34.183 39.7905 34.2342L39.5385 34.25H35.0769V47.75C35.0769 48.3011 34.8763 48.833 34.5132 49.2448C34.1501 49.6567 33.6498 49.9198 33.1072 49.9842L32.8462 50H23.9231C23.3767 49.9999 22.8493 49.7976 22.441 49.4314C22.0327 49.0652 21.7719 48.5606 21.7079 48.0133L21.6923 47.75V34.25H17.2308C16.6844 34.2499 16.157 34.0476 15.7487 33.6814C15.3404 33.3152 15.0795 32.8106 15.0156 32.2632L15 32V23C15.0001 22.4489 15.2007 21.917 15.5637 21.5052C15.9268 21.0933 16.4271 20.8302 16.9698 20.7657L17.2308 20.75H21.6923V18.5C21.6922 15.0071 23.0343 11.6502 25.4366 9.13444C27.8389 6.61869 31.1144 5.13998 34.575 5.009L35.0769 5H41.7692Z" fill="white"/>
</g>
<defs>
<clipPath id="clip0_7269_2232">
<rect width="60" height="60" fill="white" transform="translate(0 0.5)"/>
</clipPath>
</defs>
</svg>
