<svg width="25" height="25" viewBox="0 0 25 25" fill="none" xmlns="http://www.w3.org/2000/svg">
<g clip-path="url(#clip0_11476_2943)">
<path d="M12.5 12.5C12.5 13.3288 12.8292 14.1237 13.4153 14.7097C14.0013 15.2958 14.7962 15.625 15.625 15.625C16.4538 15.625 17.2487 15.2958 17.8347 14.7097C18.4208 14.1237 18.75 13.3288 18.75 12.5C18.75 11.6712 18.4208 10.8763 17.8347 10.2903C17.2487 9.70424 16.4538 9.375 15.625 9.375C14.7962 9.375 14.0013 9.70424 13.4153 10.2903C12.8292 10.8763 12.5 11.6712 12.5 12.5Z" stroke="#21468B" stroke-width="2.75" stroke-linecap="round" stroke-linejoin="round"/>
<path d="M6.25 6.25C6.25 5.4212 6.57924 4.62634 7.16529 4.04029C7.75134 3.45424 8.5462 3.125 9.375 3.125H15.625C16.4538 3.125 17.2487 3.45424 17.8347 4.04029C18.4208 4.62634 18.75 5.4212 18.75 6.25C18.75 7.0788 18.4208 7.87366 17.8347 8.45971C17.2487 9.04576 16.4538 9.375 15.625 9.375H9.375C8.5462 9.375 7.75134 9.04576 7.16529 8.45971C6.57924 7.87366 6.25 7.0788 6.25 6.25Z" stroke="#21468B" stroke-width="2.75" stroke-linecap="round" stroke-linejoin="round"/>
<path d="M9.375 9.375C8.5462 9.375 7.75134 9.70424 7.16529 10.2903C6.57924 10.8763 6.25 11.6712 6.25 12.5C6.25 13.3288 6.57924 14.1237 7.16529 14.7097C7.75134 15.2958 8.5462 15.625 9.375 15.625M9.375 15.625H12.5M9.375 15.625C8.75693 15.625 8.15275 15.8083 7.63884 16.1517C7.12494 16.495 6.7244 16.9831 6.48788 17.5541C6.25135 18.1251 6.18947 18.7535 6.31005 19.3597C6.43063 19.9658 6.72825 20.5227 7.16529 20.9597C7.60233 21.3967 8.15915 21.6944 8.76534 21.815C9.37153 21.9355 9.99987 21.8736 10.5709 21.6371C11.1419 21.4006 11.63 21.0001 11.9733 20.4862C12.3167 19.9723 12.5 19.3681 12.5 18.75V3.125" stroke="#21468B" stroke-width="2.75" stroke-linecap="round" stroke-linejoin="round"/>
</g>
<defs>
<clipPath id="clip0_11476_2943">
<rect width="25" height="25" fill="white"/>
</clipPath>
</defs>
</svg>
