<svg width="110" height="133" viewBox="0 0 110 133" fill="none" xmlns="http://www.w3.org/2000/svg">
<path d="M45.5569 0H85.3863C98.9801 0 110 11.0643 110 24.7128C110 38.3614 98.9801 49.4257 85.3863 49.4257H45.5569V0Z" fill="white"/>
<path d="M45.5569 17.973H73.7507C77.9524 17.973 81.3586 21.3929 81.3586 25.6115C81.3586 29.8301 77.9524 33.25 73.7507 33.25H45.5569V17.973Z" fill="#346CD4"/>
<path d="M78.4202 62.0068H50.049V70.2731H64.2346H78.4202V62.0068Z" fill="white"/>
<path d="M74.6373 74.6494H53.8318C53.8318 85.1525 48.3152 93.9375 45.5569 97.0171L62.3431 133V103.338C58.182 101.782 57.7722 97.8275 58.0875 96.0446C59.2223 92.1546 62.9736 91.1821 64.7074 91.1821C67.3554 91.1821 69.5936 94.4238 70.3817 96.0446C70.3817 101.102 67.5445 103.014 66.126 103.338V133L83.1487 97.0171C76.7179 91.5711 74.795 79.8361 74.6373 74.6494Z" fill="white"/>
<path d="M66.5988 97.5034C66.5988 98.8461 65.5403 99.9347 64.2346 99.9347C62.9288 99.9347 61.8703 98.8461 61.8703 97.5034C61.8703 96.1606 62.9288 95.0721 64.2346 95.0721C65.5403 95.0721 66.5988 96.1606 66.5988 97.5034Z" fill="white"/>
<path d="M0.804669 0H37.5015V133H10.6501C-4.17942 133 0.805748 119.071 0.805748 103.338L0.804669 55.7162V0Z" fill="white"/>
<path d="M46.5569 16.973V1H85.3863C98.424 1 109 11.6128 109 24.7128C109 37.8129 98.424 48.4257 85.3863 48.4257H46.5569V34.25H73.7507C78.5085 34.25 82.3586 30.3786 82.3586 25.6115C82.3586 20.8444 78.5085 16.973 73.7507 16.973H46.5569ZM73.7507 32.25H46.5569V18.973H73.7507C77.3964 18.973 80.3586 21.9413 80.3586 25.6115C80.3586 29.2816 77.3964 32.25 73.7507 32.25ZM57.1275 95.7646L57.1122 95.8169L57.1027 95.8705C56.9164 96.9246 56.9475 98.5554 57.613 100.16C58.2279 101.642 59.3807 103.087 61.3431 104.003V128.491L46.7362 97.1798C49.6088 93.7214 54.5004 85.5032 54.8157 75.6494H73.6833C73.8499 78.332 74.4024 82.1658 75.5843 86.0286C76.8351 90.1167 78.8277 94.3592 81.925 97.2653L67.126 128.548V104.052C68.9965 103.232 71.3817 100.84 71.3817 96.0446V95.8144L71.281 95.6073C70.8495 94.72 70.0352 93.4108 68.9575 92.3069C67.902 91.2258 66.4357 90.1821 64.7074 90.1821C62.7659 90.1821 58.4424 91.2572 57.1275 95.7646ZM51.049 69.2731V63.0068H77.4202V69.2731H64.2346H51.049ZM65.5988 97.5034C65.5988 98.3204 64.9619 98.9347 64.2346 98.9347C63.5073 98.9347 62.8703 98.3204 62.8703 97.5034C62.8703 96.6864 63.5073 96.0721 64.2346 96.0721C64.9619 96.0721 65.5988 96.6864 65.5988 97.5034ZM1.80467 1H36.5015V132H10.6501C7.08847 132 4.91201 131.164 3.54788 129.856C2.17332 128.538 1.45283 126.579 1.1607 123.958C0.868329 121.335 1.01998 118.205 1.25629 114.677C1.29064 114.164 1.32672 113.644 1.36329 113.116C1.57622 110.043 1.80575 106.731 1.80575 103.338H0.805748L1.80575 103.338L1.80467 55.7162L1.80467 1Z" stroke="white" stroke-width="2"/>
</svg>
