<svg width="50" height="50" viewBox="0 0 50 50" fill="none" xmlns="http://www.w3.org/2000/svg">
<g clip-path="url(#clip0_11639_3660)">
<path d="M8.33594 16.6673C8.33594 14.4572 9.21391 12.3376 10.7767 10.7748C12.3395 9.21196 14.4591 8.33398 16.6693 8.33398H33.3359C35.5461 8.33398 37.6657 9.21196 39.2285 10.7748C40.7913 12.3376 41.6693 14.4572 41.6693 16.6673V33.334C41.6693 35.5441 40.7913 37.6637 39.2285 39.2265C37.6657 40.7893 35.5461 41.6673 33.3359 41.6673H16.6693C14.4591 41.6673 12.3395 40.7893 10.7767 39.2265C9.21391 37.6637 8.33594 35.5441 8.33594 33.334V16.6673Z" fill="#346CD4" stroke="#346CD4" stroke-width="2.75" stroke-linecap="round" stroke-linejoin="round"/>
<path d="M18.75 25C18.75 26.6576 19.4085 28.2473 20.5806 29.4194C21.7527 30.5915 23.3424 31.25 25 31.25C26.6576 31.25 28.2473 30.5915 29.4194 29.4194C30.5915 28.2473 31.25 26.6576 31.25 25C31.25 23.3424 30.5915 21.7527 29.4194 20.5806C28.2473 19.4085 26.6576 18.75 25 18.75C23.3424 18.75 21.7527 19.4085 20.5806 20.5806C19.4085 21.7527 18.75 23.3424 18.75 25Z" fill="white" stroke="white" stroke-width="2.75" stroke-linecap="round" stroke-linejoin="round"/>
<path d="M34.375 15.625V15.6458" stroke="white" stroke-width="2.75" stroke-linecap="round" stroke-linejoin="round"/>
</g>
<defs>
<clipPath id="clip0_11639_3660">
<rect width="50" height="50" fill="white"/>
</clipPath>
</defs>
</svg>
