<svg width="60" height="61" viewBox="0 0 60 61" fill="none" xmlns="http://www.w3.org/2000/svg">
<g clip-path="url(#clip0_7269_2224)">
<path d="M10 20.5C10 17.8478 11.0536 15.3043 12.9289 13.4289C14.8043 11.5536 17.3478 10.5 20 10.5H40C42.6522 10.5 45.1957 11.5536 47.0711 13.4289C48.9464 15.3043 50 17.8478 50 20.5V40.5C50 43.1522 48.9464 45.6957 47.0711 47.5711C45.1957 49.4464 42.6522 50.5 40 50.5H20C17.3478 50.5 14.8043 49.4464 12.9289 47.5711C11.0536 45.6957 10 43.1522 10 40.5V20.5Z" fill="white" stroke="white" stroke-width="2.75" stroke-linecap="round" stroke-linejoin="round"/>
<path d="M22.5 30.5C22.5 32.4891 23.2902 34.3968 24.6967 35.8033C26.1032 37.2098 28.0109 38 30 38C31.9891 38 33.8968 37.2098 35.3033 35.8033C36.7098 34.3968 37.5 32.4891 37.5 30.5C37.5 28.5109 36.7098 26.6032 35.3033 25.1967C33.8968 23.7902 31.9891 23 30 23C28.0109 23 26.1032 23.7902 24.6967 25.1967C23.2902 26.6032 22.5 28.5109 22.5 30.5Z" fill="white" stroke="#346CD4" stroke-width="2.75" stroke-linecap="round" stroke-linejoin="round"/>
<path d="M41.25 19.25V19.275" stroke="#346CD4" stroke-width="2.75" stroke-linecap="round" stroke-linejoin="round"/>
</g>
<defs>
<clipPath id="clip0_7269_2224">
<rect width="60" height="60" fill="white" transform="translate(0 0.5)"/>
</clipPath>
</defs>
</svg>
