<svg width="41" height="35" viewBox="0 0 41 35" fill="none" xmlns="http://www.w3.org/2000/svg">
<path d="M1.97656 6.42857H39.5547C40.353 6.42857 41 5.78902 41 5V1.42857C41 0.639554 40.353 0 39.5547 0H1.97656C1.1783 0 0.53125 0.639554 0.53125 1.42857V5C0.53125 5.78902 1.1783 6.42857 1.97656 6.42857ZM1.97656 20.7143H39.5547C40.353 20.7143 41 20.0747 41 19.2857V15.7143C41 14.9253 40.353 14.2857 39.5547 14.2857H1.97656C1.1783 14.2857 0.53125 14.9253 0.53125 15.7143V19.2857C0.53125 20.0747 1.1783 20.7143 1.97656 20.7143ZM1.97656 35H39.5547C40.353 35 41 34.3604 41 33.5714V30C41 29.211 40.353 28.5714 39.5547 28.5714H1.97656C1.1783 28.5714 0.53125 29.211 0.53125 30V33.5714C0.53125 34.3604 1.1783 35 1.97656 35Z" fill="#346CD4"/>
</svg>
