<svg width="206" height="77" viewBox="0 0 206 77" fill="none" xmlns="http://www.w3.org/2000/svg">
<g clip-path="url(#clip0_11639_3621)">
<path d="M48.905 0H26.0938V10.2703H42.241C44.6452 10.2703 46.5982 12.2268 46.5982 14.6351C46.5982 17.0435 44.6452 19 42.241 19H26.0938V28.2432H48.905C56.6916 28.2432 63.0018 21.9219 63.0018 14.1216C63.0018 6.32135 56.6916 0 48.905 0Z" fill="#346CD4"/>
<path d="M29.6641 39.156V36.4316H43.9139V39.156H29.6641Z" stroke="#346CD4" stroke-width="2"/>
<path d="M32.3079 54.5988L32.293 54.6498L32.2835 54.7021C32.1616 55.3777 32.182 56.3957 32.5985 57.3984C32.9617 58.2727 33.6225 59.1211 34.7025 59.695V71.5022L27.2626 55.5951C28.9284 53.508 31.5074 49.0325 31.8002 43.6582H41.8023C41.927 45.1883 42.2495 47.2295 42.8804 49.2863C43.576 51.5544 44.6804 53.9532 46.4069 55.6763L38.876 71.5578V59.7025C39.9651 59.1418 40.6357 58.3203 41.0009 57.4412C41.4191 56.4346 41.4138 55.4149 41.2973 54.7156L41.2844 54.6379L41.2594 54.5631C40.8961 53.4749 40.3798 52.5939 39.6485 51.9863C38.8991 51.3637 38.0126 51.1017 37.061 51.1017C35.8606 51.1017 33.1398 51.7576 32.3079 54.5988Z" stroke="#346CD4" stroke-width="2"/>
<path d="M38.1441 55.7158C38.1441 56.481 37.5392 57.1075 36.7908 57.1075C36.0424 57.1075 35.4375 56.4861 35.4375 55.7158C35.4375 54.9456 36.0424 54.3242 36.7908 54.3242C37.5392 54.3242 38.1441 54.9507 38.1441 55.7158Z" fill="#346CD4"/>
<path d="M0.461468 0H21.4786V76H6.1002C-2.39378 76 0.461468 68.0405 0.461468 59.0489V31.8378V0Z" fill="#346CD4"/>
</g>
<mask id="path-6-outside-1_11639_3621" maskUnits="userSpaceOnUse" x="72" y="0" width="135" height="31" fill="black">
<rect fill="white" x="72" width="135" height="31"/>
<path d="M82.5301 28.4194C80.7781 28.4194 79.2638 28.0746 77.9871 27.3849C76.7197 26.686 75.7505 25.7215 75.0795 24.4914C74.4179 23.2613 74.0871 21.8634 74.0871 20.2978V8.91935C74.0871 8.54659 74.2735 8.36022 74.6462 8.36022H78.5602C78.933 8.36022 79.1193 8.54659 79.1193 8.91935V19.5849C79.1193 20.4237 79.2545 21.1552 79.5247 21.7796C79.8043 22.4039 80.2003 22.8885 80.7129 23.2333C81.2347 23.5688 81.8405 23.7366 82.5301 23.7366C83.229 23.7366 83.8394 23.5688 84.3613 23.2333C84.8831 22.8885 85.2839 22.4039 85.5634 21.7796C85.843 21.1552 85.9828 20.4237 85.9828 19.5849V8.91935C85.9828 8.54659 86.1692 8.36022 86.5419 8.36022H90.4559C90.8287 8.36022 91.015 8.54659 91.015 8.91935V20.2978C91.015 21.8634 90.6795 23.2613 90.0086 24.4914C89.3376 25.7215 88.3638 26.686 87.0871 27.3849C85.8104 28.0746 84.2914 28.4194 82.5301 28.4194ZM103.777 28.3495C101.885 28.3495 100.156 27.8928 98.5908 26.9796C97.0346 26.0663 95.8045 24.8315 94.9005 23.2753C94.0059 21.719 93.5586 20.009 93.5586 18.1452C93.5586 16.2814 94.0059 14.5713 94.9005 13.0151C95.8045 11.4588 97.0346 10.2333 98.5908 9.33871C100.147 8.43477 101.876 7.98279 103.777 7.98279C104.932 7.98279 106.037 8.15986 107.09 8.51398C108.152 8.8681 109.112 9.36667 109.969 10.0097C110.128 10.1308 110.207 10.2706 110.207 10.429C110.207 10.5502 110.16 10.6713 110.067 10.7925L107.803 13.7559C107.672 13.9143 107.532 13.9935 107.383 13.9935C107.262 13.9935 107.141 13.9516 107.02 13.8677C106.545 13.5416 106.027 13.2853 105.468 13.0989C104.909 12.9032 104.345 12.8054 103.777 12.8054C102.873 12.8054 102.03 13.043 101.247 13.5183C100.464 13.9842 99.8349 14.6272 99.3596 15.4473C98.8937 16.2674 98.6607 17.1713 98.6607 18.1591C98.6607 19.147 98.8937 20.0509 99.3596 20.871C99.8349 21.691 100.464 22.3387 101.247 22.814C102.039 23.2892 102.882 23.5269 103.777 23.5269C104.42 23.5269 104.984 23.4477 105.468 23.2892C105.962 23.1215 106.489 22.8373 107.048 22.4366C107.178 22.3527 107.304 22.3108 107.425 22.3108C107.584 22.3108 107.723 22.39 107.845 22.5484L110.067 25.5258C110.17 25.6749 110.221 25.8054 110.221 25.9172C110.221 26.0477 110.151 26.1688 110.011 26.2806C109.145 26.9423 108.18 27.4548 107.118 27.8183C106.055 28.1724 104.942 28.3495 103.777 28.3495ZM100.031 4.32043C99.8629 4.18996 99.779 4.04552 99.779 3.8871C99.779 3.75663 99.8256 3.64014 99.9188 3.53763L100.827 2.34946C100.949 2.19104 101.088 2.11183 101.247 2.11183C101.368 2.11183 101.489 2.15376 101.61 2.23763L103.861 3.85914L106.111 2.23763C106.232 2.15376 106.349 2.11183 106.461 2.11183C106.619 2.11183 106.764 2.1957 106.894 2.36344L107.789 3.53763C107.873 3.64946 107.914 3.76595 107.914 3.8871C107.914 4.05484 107.835 4.19928 107.677 4.32043L104.574 6.69677C104.378 6.8552 104.145 6.93441 103.875 6.93441C103.595 6.93441 103.357 6.8552 103.162 6.69677L100.031 4.32043ZM127.452 27.4409C127.452 27.8136 127.266 28 126.893 28H113.53C113.157 28 112.971 27.8136 112.971 27.4409V8.91935C112.971 8.54659 113.157 8.36022 113.53 8.36022H126.684C127.056 8.36022 127.243 8.54659 127.243 8.91935V12.3441C127.243 12.7168 127.056 12.9032 126.684 12.9032H118.003V15.9645H124.671C125.043 15.9645 125.23 16.1509 125.23 16.5237V19.6688C125.23 20.0416 125.043 20.228 124.671 20.228H118.003V23.457H126.893C127.266 23.457 127.452 23.6434 127.452 24.0161V27.4409ZM135.281 27.4409C135.281 27.8136 135.095 28 134.722 28H130.948C130.575 28 130.389 27.8136 130.389 27.4409V8.91935C130.389 8.54659 130.575 8.36022 130.948 8.36022H135.267C135.565 8.36022 135.789 8.48136 135.938 8.72366L142.634 19.4591V8.91935C142.634 8.54659 142.82 8.36022 143.193 8.36022H146.967C147.34 8.36022 147.526 8.54659 147.526 8.91935V27.4409C147.526 27.8136 147.34 28 146.967 28H143.123C142.834 28 142.61 27.8789 142.452 27.6366L135.281 16.286V27.4409ZM156.47 27.4409C156.47 27.8136 156.283 28 155.911 28H151.997C151.624 28 151.437 27.8136 151.437 27.4409V8.91935C151.437 8.54659 151.624 8.36022 151.997 8.36022H155.911C156.283 8.36022 156.47 8.54659 156.47 8.91935V27.4409ZM169.615 28.3495C167.723 28.3495 165.994 27.8928 164.429 26.9796C162.872 26.0663 161.642 24.8315 160.738 23.2753C159.844 21.719 159.396 20.009 159.396 18.1452C159.396 16.2814 159.844 14.5713 160.738 13.0151C161.642 11.4588 162.872 10.2333 164.429 9.33871C165.985 8.43477 167.714 7.98279 169.615 7.98279C170.77 7.98279 171.875 8.15986 172.928 8.51398C173.99 8.8681 174.95 9.36667 175.807 10.0097C175.966 10.1308 176.045 10.2706 176.045 10.429C176.045 10.5502 175.998 10.6713 175.905 10.7925L173.641 13.7559C173.51 13.9143 173.37 13.9935 173.221 13.9935C173.1 13.9935 172.979 13.9516 172.858 13.8677C172.382 13.5416 171.865 13.2853 171.306 13.0989C170.747 12.9032 170.183 12.8054 169.615 12.8054C168.711 12.8054 167.867 13.043 167.085 13.5183C166.302 13.9842 165.673 14.6272 165.198 15.4473C164.732 16.2674 164.499 17.1713 164.499 18.1591C164.499 19.147 164.732 20.0509 165.198 20.871C165.673 21.691 166.302 22.3387 167.085 22.814C167.877 23.2892 168.72 23.5269 169.615 23.5269C170.258 23.5269 170.822 23.4477 171.306 23.2892C171.8 23.1215 172.327 22.8373 172.886 22.4366C173.016 22.3527 173.142 22.3108 173.263 22.3108C173.422 22.3108 173.561 22.39 173.682 22.5484L175.905 25.5258C176.008 25.6749 176.059 25.8054 176.059 25.9172C176.059 26.0477 175.989 26.1688 175.849 26.2806C174.982 26.9423 174.018 27.4548 172.956 27.8183C171.893 28.1724 170.78 28.3495 169.615 28.3495ZM165.869 4.32043C165.701 4.18996 165.617 4.04552 165.617 3.8871C165.617 3.75663 165.663 3.64014 165.757 3.53763L166.665 2.34946C166.786 2.19104 166.926 2.11183 167.085 2.11183C167.206 2.11183 167.327 2.15376 167.448 2.23763L169.699 3.85914L171.949 2.23763C172.07 2.15376 172.187 2.11183 172.299 2.11183C172.457 2.11183 172.601 2.1957 172.732 2.36344L173.627 3.53763C173.71 3.64946 173.752 3.76595 173.752 3.8871C173.752 4.05484 173.673 4.19928 173.515 4.32043L170.412 6.69677C170.216 6.8552 169.983 6.93441 169.713 6.93441C169.433 6.93441 169.195 6.8552 169 6.69677L165.869 4.32043ZM196.449 27.329C196.524 27.4409 196.561 27.5527 196.561 27.6645C196.561 27.767 196.519 27.8509 196.435 27.9161C196.352 27.972 196.235 28 196.086 28H191.333C191.035 28 190.811 27.8789 190.662 27.6366L185.993 20.3677L183.841 22.8978V27.4409C183.841 27.8136 183.654 28 183.282 28H179.368C178.995 28 178.809 27.8136 178.809 27.4409V8.91935C178.809 8.54659 178.995 8.36022 179.368 8.36022H183.282C183.654 8.36022 183.841 8.54659 183.841 8.91935V16.0624L189.782 8.68172C189.959 8.46738 190.187 8.36022 190.467 8.36022H195.289C195.438 8.36022 195.555 8.38817 195.639 8.44409C195.723 8.5 195.764 8.57921 195.764 8.68172C195.764 8.79355 195.709 8.91469 195.597 9.04516L189.25 16.5237L196.449 27.329ZM204.052 27.4409C204.052 27.8136 203.865 28 203.493 28H199.579C199.206 28 199.019 27.8136 199.019 27.4409V8.91935C199.019 8.54659 199.206 8.36022 199.579 8.36022H203.493C203.865 8.36022 204.052 8.54659 204.052 8.91935V27.4409Z"/>
</mask>
<path d="M77.9871 27.3849L77.0213 29.1363L77.0289 29.1405L77.0366 29.1446L77.9871 27.3849ZM75.0795 24.4914L73.3181 25.4388L73.3238 25.4491L75.0795 24.4914ZM79.5247 21.7796L77.6893 22.574L77.6942 22.5855L77.6993 22.5969L79.5247 21.7796ZM80.7129 23.2333L79.5965 24.8928L79.6138 24.9044L79.6314 24.9157L80.7129 23.2333ZM84.3613 23.2333L85.4428 24.9157L85.4533 24.9089L85.4638 24.902L84.3613 23.2333ZM85.5634 21.7796L83.7381 20.9622L85.5634 21.7796ZM90.0086 24.4914L88.2528 23.5337L90.0086 24.4914ZM87.0871 27.3849L88.0376 29.1447L88.0475 29.1393L87.0871 27.3849ZM82.5301 26.4194C81.0416 26.4194 79.8675 26.1276 78.9376 25.6252L77.0366 29.1446C78.66 30.0216 80.5146 30.4194 82.5301 30.4194V26.4194ZM78.9529 25.6336C78.0075 25.1122 77.3177 24.418 76.8353 23.5337L73.3238 25.4491C74.1833 27.025 75.4319 28.2598 77.0213 29.1363L78.9529 25.6336ZM76.8409 23.544C76.3541 22.6389 76.0871 21.5734 76.0871 20.2978H72.0871C72.0871 22.1535 72.4817 23.8837 73.3182 25.4388L76.8409 23.544ZM76.0871 20.2978V8.91935H72.0871V20.2978H76.0871ZM76.0871 8.91935C76.0871 9.04126 76.0552 9.50004 75.6411 9.91421C75.2269 10.3284 74.7681 10.3602 74.6462 10.3602V6.36022C74.1515 6.36022 73.4132 6.48524 72.8126 7.08579C72.2121 7.68634 72.0871 8.42468 72.0871 8.91935H76.0871ZM74.6462 10.3602H78.5602V6.36022H74.6462V10.3602ZM78.5602 10.3602C78.4383 10.3602 77.9795 10.3284 77.5653 9.91421C77.1512 9.50004 77.1193 9.04126 77.1193 8.91935H81.1193C81.1193 8.42468 80.9943 7.68634 80.3938 7.08579C79.7932 6.48524 79.0549 6.36022 78.5602 6.36022V10.3602ZM77.1193 8.91935V19.5849H81.1193V8.91935H77.1193ZM77.1193 19.5849C77.1193 20.6351 77.2883 21.6477 77.6893 22.574L81.3602 20.9851C81.2206 20.6627 81.1193 20.2122 81.1193 19.5849H77.1193ZM77.6993 22.5969C78.1149 23.5249 78.7408 24.3171 79.5965 24.8928L81.8292 21.5739C81.6599 21.46 81.4937 21.283 81.3501 20.9622L77.6993 22.5969ZM79.6314 24.9157C80.5111 25.4813 81.5012 25.7366 82.5301 25.7366V21.7366C82.1797 21.7366 81.9584 21.6564 81.7944 21.551L79.6314 24.9157ZM82.5301 25.7366C83.5625 25.7366 84.5587 25.484 85.4428 24.9157L83.2798 21.551C83.1201 21.6536 82.8955 21.7366 82.5301 21.7366V25.7366ZM85.4638 24.902C86.332 24.3283 86.9691 23.5342 87.3888 22.5969L83.7381 20.9622C83.5986 21.2737 83.4342 21.4487 83.2588 21.5647L85.4638 24.902ZM87.3888 22.5969C87.8064 21.6642 87.9828 20.6432 87.9828 19.5849H83.9828C83.9828 20.2041 83.8796 20.6462 83.7381 20.9622L87.3888 22.5969ZM87.9828 19.5849V8.91935H83.9828V19.5849H87.9828ZM87.9828 8.91935C87.9828 9.04127 87.9509 9.50005 87.5368 9.91422C87.1226 10.3284 86.6638 10.3602 86.5419 10.3602V6.36022C86.0472 6.36022 85.3089 6.48524 84.7083 7.08578C84.1078 7.68633 83.9828 8.42468 83.9828 8.91935H87.9828ZM86.5419 10.3602H90.4559V6.36022H86.5419V10.3602ZM90.4559 10.3602C90.334 10.3602 89.8752 10.3284 89.461 9.91422C89.0469 9.50005 89.015 9.04127 89.015 8.91935H93.015C93.015 8.42468 92.89 7.68633 92.2895 7.08578C91.6889 6.48524 90.9506 6.36022 90.4559 6.36022V10.3602ZM89.015 8.91935V20.2978H93.015V8.91935H89.015ZM89.015 20.2978C89.015 21.5688 88.7454 22.6306 88.2528 23.5337L91.7644 25.4491C92.6137 23.892 93.015 22.1581 93.015 20.2978H89.015ZM88.2528 23.5337C87.7726 24.4141 87.0812 25.1081 86.1267 25.6306L88.0475 29.1393C89.6464 28.2639 90.9027 27.0289 91.7644 25.4491L88.2528 23.5337ZM86.1366 25.6252C85.2081 26.1268 84.0299 26.4194 82.5301 26.4194V30.4194C84.5529 30.4194 86.4127 30.0223 88.0376 29.1446L86.1366 25.6252ZM98.5908 26.9796L97.5786 28.7045L97.5831 28.7071L98.5908 26.9796ZM94.9005 23.2753L93.1666 24.272L93.1711 24.2798L94.9005 23.2753ZM94.9005 13.0151L93.1711 12.0105L93.1666 12.0183L94.9005 13.0151ZM98.5908 9.33871L99.5876 11.0727L99.5954 11.0681L98.5908 9.33871ZM107.09 8.51398L106.452 10.4097L106.457 10.4113L107.09 8.51398ZM109.969 10.0097L111.184 8.42096L111.177 8.41529L111.169 8.40968L109.969 10.0097ZM110.067 10.7925L108.482 9.57304L108.478 9.57813L110.067 10.7925ZM107.803 13.7559L109.347 15.0273L109.37 14.9992L109.392 14.9703L107.803 13.7559ZM107.02 13.8677L108.158 12.2233L108.152 12.2187L107.02 13.8677ZM105.468 13.0989L104.808 14.9866L104.822 14.9916L104.836 14.9963L105.468 13.0989ZM101.247 13.5183L102.27 15.2369L102.277 15.2324L102.285 15.2279L101.247 13.5183ZM99.3596 15.4473L97.6292 14.4445L97.625 14.4519L97.6207 14.4593L99.3596 15.4473ZM99.3596 20.871L97.6207 21.859L97.625 21.8664L97.6292 21.8738L99.3596 20.871ZM101.247 22.814L100.209 24.5236L100.218 24.529L101.247 22.814ZM105.468 23.2892L106.09 25.1902L106.101 25.1867L106.111 25.183L105.468 23.2892ZM107.048 22.4366L105.966 20.7542L105.924 20.7815L105.883 20.8109L107.048 22.4366ZM107.845 22.5484L109.447 21.352L109.44 21.3427L109.433 21.3335L107.845 22.5484ZM110.067 25.5258L111.715 24.3927L111.693 24.3606L111.67 24.3294L110.067 25.5258ZM110.011 26.2806L111.225 27.8703L111.243 27.8566L111.261 27.8424L110.011 26.2806ZM107.118 27.8183L107.75 29.7156L107.758 29.7132L107.765 29.7106L107.118 27.8183ZM100.031 4.32043L98.8027 5.89913L98.8121 5.90641L98.8215 5.91358L100.031 4.32043ZM99.9188 3.53763L101.399 4.88298L101.456 4.82007L101.508 4.75253L99.9188 3.53763ZM100.827 2.34946L99.2387 1.13456L99.2387 1.13456L100.827 2.34946ZM101.61 2.23763L102.779 0.614948L102.764 0.603954L102.749 0.59325L101.61 2.23763ZM103.861 3.85914L102.692 5.48183L103.861 6.32419L105.03 5.48183L103.861 3.85914ZM106.111 2.23763L104.973 0.59325L104.957 0.603954L104.942 0.614948L106.111 2.23763ZM106.894 2.36344L108.485 1.15135L108.479 1.14343L108.473 1.13556L106.894 2.36344ZM107.789 3.53763L109.389 2.33763L109.384 2.33157L109.38 2.32555L107.789 3.53763ZM107.677 4.32043L106.462 2.73171L106.461 2.73253L107.677 4.32043ZM104.574 6.69677L103.358 5.10887L103.336 5.12529L103.315 5.14228L104.574 6.69677ZM103.162 6.69677L104.42 5.14228L104.396 5.12257L104.371 5.10363L103.162 6.69677ZM103.777 26.3495C102.223 26.3495 100.845 25.9789 99.5986 25.252L97.5831 28.7071C99.4682 29.8068 101.547 30.3495 103.777 30.3495V26.3495ZM99.6031 25.2546C98.3431 24.5153 97.3604 23.5283 96.6299 22.2707L93.1711 24.2798C94.2485 26.1348 95.726 27.6174 97.5786 28.7045L99.6031 25.2546ZM96.6344 22.2785C95.921 21.0374 95.5586 19.6731 95.5586 18.1452H91.5586C91.5586 20.3448 92.0908 22.4006 93.1666 24.272L96.6344 22.2785ZM95.5586 18.1452C95.5586 16.6172 95.921 15.2529 96.6344 14.0118L93.1666 12.0183C92.0908 13.8897 91.5586 15.9455 91.5586 18.1452H95.5586ZM96.6299 14.0196C97.3583 12.7656 98.3361 11.7921 99.5876 11.0726L97.5941 7.60478C95.733 8.6746 94.2506 10.1519 93.1711 12.0105L96.6299 14.0196ZM99.5954 11.0681C100.829 10.3515 102.208 9.98279 103.777 9.98279V5.98279C101.544 5.98279 99.4651 6.51802 97.5863 7.60928L99.5954 11.0681ZM103.777 9.98279C104.724 9.98279 105.613 10.1274 106.452 10.4097L107.727 6.6183C106.461 6.19234 105.14 5.98279 103.777 5.98279V9.98279ZM106.457 10.4113C107.325 10.7006 108.092 11.1014 108.769 11.6097L111.169 8.40968C110.132 7.63197 108.979 7.03563 107.722 6.61661L106.457 10.4113ZM108.754 11.5984C108.67 11.5337 108.528 11.4049 108.408 11.1914C108.279 10.9651 108.207 10.7005 108.207 10.429H112.207C112.207 9.48911 111.696 8.8125 111.184 8.42096L108.754 11.5984ZM108.207 10.429C108.207 10.0048 108.378 9.70867 108.482 9.57305L111.652 12.0119C111.943 11.634 112.207 11.0956 112.207 10.429H108.207ZM108.478 9.57813L106.214 12.5416L109.392 14.9703L111.656 12.0068L108.478 9.57813ZM106.259 12.4845C106.357 12.3647 106.732 11.9935 107.383 11.9935V15.9935C108.332 15.9935 108.987 15.464 109.347 15.0273L106.259 12.4845ZM107.383 11.9935C107.75 11.9935 108.018 12.1265 108.158 12.2234L105.881 15.5121C106.264 15.7767 106.774 15.9935 107.383 15.9935V11.9935ZM108.152 12.2187C107.519 11.7845 106.833 11.4457 106.101 11.2016L104.836 14.9963C105.222 15.1249 105.57 15.2987 105.888 15.5168L108.152 12.2187ZM106.129 11.2112C105.367 10.9444 104.58 10.8054 103.777 10.8054V14.8054C104.111 14.8054 104.452 14.8621 104.808 14.9866L106.129 11.2112ZM103.777 10.8054C102.502 10.8054 101.3 11.1461 100.209 11.8087L102.285 15.2279C102.759 14.9399 103.244 14.8054 103.777 14.8054V10.8054ZM100.224 11.7997C99.1359 12.4472 98.2683 13.3418 97.6292 14.4445L101.09 16.4502C101.402 15.9127 101.792 15.5212 102.27 15.2369L100.224 11.7997ZM97.6207 14.4593C96.9754 15.595 96.6607 16.842 96.6607 18.1591H100.661C100.661 17.5007 100.812 16.9398 101.099 16.4353L97.6207 14.4593ZM96.6607 18.1591C96.6607 19.4763 96.9754 20.7233 97.6207 21.859L101.099 19.8829C100.812 19.3785 100.661 18.8176 100.661 18.1591H96.6607ZM97.6292 21.8738C98.2664 22.9732 99.1294 23.8682 100.209 24.5236L102.285 21.1044C101.799 20.8092 101.403 20.4089 101.09 19.8681L97.6292 21.8738ZM100.218 24.529C101.31 25.1844 102.508 25.5269 103.777 25.5269V21.5269C103.257 21.5269 102.768 21.3941 102.276 21.099L100.218 24.529ZM103.777 25.5269C104.578 25.5269 105.36 25.4288 106.09 25.1902L104.847 21.3883C104.607 21.4665 104.261 21.5269 103.777 21.5269V25.5269ZM106.111 25.183C106.84 24.9356 107.542 24.5432 108.213 24.0622L105.883 20.8109C105.436 21.1313 105.084 21.3074 104.825 21.3955L106.111 25.183ZM108.129 24.1189C108.027 24.1849 107.782 24.3108 107.425 24.3108V20.3108C106.826 20.3108 106.33 20.5205 105.966 20.7542L108.129 24.1189ZM107.425 24.3108C107.154 24.3108 106.889 24.2385 106.663 24.1102C106.449 23.9892 106.321 23.8479 106.256 23.7633L109.433 21.3335C109.042 20.8215 108.365 20.3108 107.425 20.3108V24.3108ZM106.242 23.7448L108.464 26.7222L111.67 24.3294L109.447 21.352L106.242 23.7448ZM108.419 26.6589C108.408 26.6422 108.364 26.5772 108.321 26.4668C108.277 26.3559 108.221 26.1661 108.221 25.9172H112.221C112.221 25.2207 111.918 24.6872 111.715 24.3927L108.419 26.6589ZM108.221 25.9172C108.221 25.2351 108.615 24.8368 108.762 24.7189L111.261 27.8424C111.688 27.5008 112.221 26.8602 112.221 25.9172H108.221ZM108.798 24.691C108.107 25.218 107.335 25.6301 106.47 25.926L107.765 29.7106C109.025 29.2795 110.182 28.6666 111.225 27.8703L108.798 24.691ZM106.485 25.9209C105.635 26.2044 104.735 26.3495 103.777 26.3495V30.3495C105.148 30.3495 106.476 30.1405 107.75 29.7156L106.485 25.9209ZM101.258 2.74172C101.324 2.79289 101.455 2.90893 101.571 3.10998C101.697 3.32558 101.779 3.59416 101.779 3.8871H97.779C97.779 4.85848 98.3266 5.52883 98.8027 5.89913L101.258 2.74172ZM101.779 3.8871C101.779 4.06597 101.746 4.25726 101.671 4.44466C101.597 4.63012 101.496 4.77588 101.399 4.88298L98.4389 2.19229C98.0337 2.63804 97.779 3.22644 97.779 3.8871H101.779ZM101.508 4.75253L102.416 3.56436L99.2387 1.13456L98.3301 2.32273L101.508 4.75253ZM102.416 3.56437C102.351 3.64896 102.223 3.79031 102.009 3.91128C101.783 4.03954 101.518 4.11183 101.247 4.11183V0.111828C100.307 0.111828 99.6302 0.622553 99.2387 1.13456L102.416 3.56437ZM101.247 4.11183C100.88 4.11183 100.612 3.97889 100.472 3.88202L102.749 0.59325C102.366 0.328632 101.856 0.111828 101.247 0.111828V4.11183ZM100.441 3.86032L102.692 5.48183L105.03 2.23645L102.779 0.614948L100.441 3.86032ZM105.03 5.48183L107.28 3.86032L104.942 0.614948L102.692 2.23645L105.03 5.48183ZM107.25 3.88202C107.141 3.95703 106.867 4.11183 106.461 4.11183V0.111828C105.831 0.111828 105.323 0.350492 104.973 0.59325L107.25 3.88202ZM106.461 4.11183C106.168 4.11183 105.899 4.0295 105.684 3.90431C105.483 3.78757 105.367 3.6571 105.315 3.59132L108.473 1.13556C108.102 0.659451 107.432 0.111828 106.461 0.111828V4.11183ZM105.303 3.57553L106.198 4.74972L109.38 2.32555L108.485 1.15135L105.303 3.57553ZM106.189 4.73763C106.054 4.55871 105.914 4.26321 105.914 3.8871H109.914C109.914 3.26869 109.691 2.74022 109.389 2.33763L106.189 4.73763ZM105.914 3.8871C105.914 3.6412 105.976 3.38766 106.101 3.15957C106.221 2.94174 106.366 2.80545 106.462 2.73171L108.892 5.90915C109.44 5.48992 109.914 4.79908 109.914 3.8871H105.914ZM106.461 2.73253L103.358 5.10887L105.79 8.28468L108.893 5.90833L106.461 2.73253ZM103.315 5.14228C103.396 5.07664 103.496 5.01953 103.608 4.98145C103.719 4.94399 103.812 4.93441 103.875 4.93441V8.93441C104.567 8.93441 105.253 8.71982 105.832 8.25126L103.315 5.14228ZM103.875 4.93441C103.925 4.93441 104.012 4.94186 104.119 4.97763C104.229 5.01427 104.333 5.0714 104.42 5.14228L101.903 8.25127C102.495 8.73001 103.191 8.93441 103.875 8.93441V4.93441ZM104.371 5.10363L101.24 2.72728L98.8215 5.91358L101.953 8.28992L104.371 5.10363ZM118.003 12.9032V10.9032H116.003V12.9032H118.003ZM118.003 15.9645H116.003V17.9645H118.003V15.9645ZM118.003 20.228V18.228H116.003V20.228H118.003ZM118.003 23.457H116.003V25.457H118.003V23.457ZM125.452 27.4409C125.452 27.319 125.484 26.8602 125.898 26.446C126.313 26.0318 126.771 26 126.893 26V30C127.388 30 128.126 29.875 128.727 29.2744C129.327 28.6739 129.452 27.9355 129.452 27.4409H125.452ZM126.893 26H113.53V30H126.893V26ZM113.53 26C113.652 26 114.11 26.0318 114.525 26.446C114.939 26.8602 114.971 27.319 114.971 27.4409H110.971C110.971 27.9355 111.096 28.6739 111.696 29.2744C112.297 29.875 113.035 30 113.53 30V26ZM114.971 27.4409V8.91935H110.971V27.4409H114.971ZM114.971 8.91935C114.971 9.04126 114.939 9.50004 114.525 9.91421C114.11 10.3284 113.652 10.3602 113.53 10.3602V6.36022C113.035 6.36022 112.297 6.48524 111.696 7.08579C111.096 7.68634 110.971 8.42468 110.971 8.91935H114.971ZM113.53 10.3602H126.684V6.36022H113.53V10.3602ZM126.684 10.3602C126.562 10.3602 126.103 10.3284 125.689 9.91421C125.275 9.50004 125.243 9.04126 125.243 8.91935H129.243C129.243 8.42469 129.118 7.68634 128.517 7.08579C127.917 6.48524 127.178 6.36022 126.684 6.36022V10.3602ZM125.243 8.91935V12.3441H129.243V8.91935H125.243ZM125.243 12.3441C125.243 12.2222 125.275 11.7634 125.689 11.3492C126.103 10.9351 126.562 10.9032 126.684 10.9032V14.9032C127.178 14.9032 127.917 14.7782 128.517 14.1777C129.118 13.5771 129.243 12.8388 129.243 12.3441H125.243ZM126.684 10.9032H118.003V14.9032H126.684V10.9032ZM116.003 12.9032V15.9645H120.003V12.9032H116.003ZM118.003 17.9645H124.671V13.9645H118.003V17.9645ZM124.671 17.9645C124.549 17.9645 124.09 17.9327 123.676 17.5185C123.262 17.1043 123.23 16.6456 123.23 16.5237H127.23C127.23 16.029 127.105 15.2906 126.504 14.6901C125.904 14.0895 125.165 13.9645 124.671 13.9645V17.9645ZM123.23 16.5237V19.6688H127.23V16.5237H123.23ZM123.23 19.6688C123.23 19.5469 123.262 19.0881 123.676 18.674C124.09 18.2598 124.549 18.228 124.671 18.228V22.228C125.165 22.228 125.904 22.1029 126.504 21.5024C127.105 20.9018 127.23 20.1635 127.23 19.6688H123.23ZM124.671 18.228H118.003V22.228H124.671V18.228ZM116.003 20.228V23.457H120.003V20.228H116.003ZM118.003 25.457H126.893V21.457H118.003V25.457ZM126.893 25.457C126.771 25.457 126.313 25.4252 125.898 25.011C125.484 24.5968 125.452 24.138 125.452 24.0161H129.452C129.452 23.5215 129.327 22.7831 128.727 22.1826C128.126 21.582 127.388 21.457 126.893 21.457V25.457ZM125.452 24.0161V27.4409H129.452V24.0161H125.452ZM135.938 8.72366L134.235 9.77187L134.241 9.78206L135.938 8.72366ZM142.634 19.4591L140.937 20.5175L144.634 26.4451V19.4591H142.634ZM142.452 27.6366L140.761 28.7048L140.77 28.718L140.778 28.7311L142.452 27.6366ZM135.281 16.286L136.972 15.2178L133.281 9.37579V16.286H135.281ZM133.281 27.4409C133.281 27.319 133.313 26.8602 133.727 26.446C134.141 26.0318 134.6 26 134.722 26V30C135.217 30 135.955 29.875 136.556 29.2744C137.156 28.6739 137.281 27.9355 137.281 27.4409H133.281ZM134.722 26H130.948V30H134.722V26ZM130.948 26C131.07 26 131.528 26.0318 131.943 26.446C132.357 26.8602 132.389 27.319 132.389 27.4409H128.389C128.389 27.9355 128.514 28.6739 129.114 29.2744C129.715 29.875 130.453 30 130.948 30V26ZM132.389 27.4409V8.91935H128.389V27.4409H132.389ZM132.389 8.91935C132.389 9.04126 132.357 9.50004 131.943 9.91421C131.528 10.3284 131.07 10.3602 130.948 10.3602V6.36022C130.453 6.36022 129.715 6.48524 129.114 7.08579C128.514 7.68634 128.389 8.42468 128.389 8.91935H132.389ZM130.948 10.3602H135.267V6.36022H130.948V10.3602ZM135.267 10.3602C135.141 10.3602 134.933 10.3328 134.706 10.2097C134.474 10.0842 134.322 9.91304 134.235 9.77185L137.641 7.67546C137.108 6.80787 136.219 6.36022 135.267 6.36022V10.3602ZM134.241 9.78206L140.937 20.5175L144.331 18.4007L137.635 7.66525L134.241 9.78206ZM144.634 19.4591V8.91935H140.634V19.4591H144.634ZM144.634 8.91935C144.634 9.04126 144.602 9.50004 144.188 9.91421C143.774 10.3284 143.315 10.3602 143.193 10.3602V6.36022C142.698 6.36022 141.96 6.48524 141.359 7.08579C140.759 7.68634 140.634 8.42469 140.634 8.91935H144.634ZM143.193 10.3602H146.967V6.36022H143.193V10.3602ZM146.967 10.3602C146.845 10.3602 146.386 10.3284 145.972 9.91421C145.558 9.50004 145.526 9.04126 145.526 8.91935H149.526C149.526 8.42469 149.401 7.68634 148.801 7.08579C148.2 6.48524 147.462 6.36022 146.967 6.36022V10.3602ZM145.526 8.91935V27.4409H149.526V8.91935H145.526ZM145.526 27.4409C145.526 27.319 145.558 26.8602 145.972 26.446C146.386 26.0318 146.845 26 146.967 26V30C147.462 30 148.2 29.875 148.801 29.2744C149.401 28.6739 149.526 27.9355 149.526 27.4409H145.526ZM146.967 26H143.123V30H146.967V26ZM143.123 26C143.266 26 143.473 26.0323 143.691 26.1506C143.909 26.2688 144.049 26.4242 144.126 26.5421L140.778 28.7311C141.305 29.5369 142.157 30 143.123 30V26ZM144.143 26.5683L136.972 15.2178L133.59 17.3542L140.761 28.7048L144.143 26.5683ZM133.281 16.286V27.4409H137.281V16.286H133.281ZM154.47 27.4409C154.47 27.319 154.502 26.8602 154.916 26.446C155.33 26.0318 155.789 26 155.911 26V30C156.405 30 157.144 29.875 157.744 29.2744C158.345 28.6739 158.47 27.9355 158.47 27.4409H154.47ZM155.911 26H151.997V30H155.911V26ZM151.997 26C152.119 26 152.577 26.0318 152.991 26.446C153.406 26.8602 153.437 27.319 153.437 27.4409H149.437C149.437 27.9355 149.562 28.6739 150.163 29.2744C150.764 29.875 151.502 30 151.997 30V26ZM153.437 27.4409V8.91935H149.437V27.4409H153.437ZM153.437 8.91935C153.437 9.04126 153.406 9.50004 152.991 9.91421C152.577 10.3284 152.119 10.3602 151.997 10.3602V6.36022C151.502 6.36022 150.764 6.48524 150.163 7.08579C149.562 7.68634 149.437 8.42468 149.437 8.91935H153.437ZM151.997 10.3602H155.911V6.36022H151.997V10.3602ZM155.911 10.3602C155.789 10.3602 155.33 10.3284 154.916 9.91421C154.502 9.50004 154.47 9.04126 154.47 8.91935H158.47C158.47 8.42468 158.345 7.68633 157.744 7.08579C157.144 6.48524 156.405 6.36022 155.911 6.36022V10.3602ZM154.47 8.91935V27.4409H158.47V8.91935H154.47ZM164.429 26.9796L163.416 28.7045L163.421 28.7071L164.429 26.9796ZM160.738 23.2753L159.004 24.272L159.009 24.2798L160.738 23.2753ZM160.738 13.0151L159.009 12.0105L159.004 12.0183L160.738 13.0151ZM164.429 9.33871L165.425 11.0727L165.433 11.0681L164.429 9.33871ZM172.928 8.51398L172.29 10.4097L172.295 10.4113L172.928 8.51398ZM175.807 10.0097L177.022 8.42096L177.015 8.41529L177.007 8.40968L175.807 10.0097ZM175.905 10.7925L174.32 9.57304L174.316 9.57813L175.905 10.7925ZM173.641 13.7559L175.184 15.0273L175.208 14.9992L175.23 14.9703L173.641 13.7559ZM172.858 13.8677L173.996 12.2233L173.989 12.2187L172.858 13.8677ZM171.306 13.0989L170.645 14.9866L170.66 14.9916L170.674 14.9963L171.306 13.0989ZM167.085 13.5183L168.108 15.2369L168.115 15.2324L168.123 15.2279L167.085 13.5183ZM165.198 15.4473L163.467 14.4445L163.463 14.4519L163.459 14.4593L165.198 15.4473ZM165.198 20.871L163.459 21.859L163.463 21.8664L163.467 21.8738L165.198 20.871ZM167.085 22.814L166.047 24.5236L166.056 24.529L167.085 22.814ZM171.306 23.2892L171.928 25.1902L171.938 25.1867L171.949 25.183L171.306 23.2892ZM172.886 22.4366L171.804 20.7542L171.762 20.7815L171.721 20.8109L172.886 22.4366ZM173.682 22.5484L175.285 21.352L175.278 21.3427L175.271 21.3335L173.682 22.5484ZM175.905 25.5258L177.553 24.3927L177.531 24.3606L177.508 24.3294L175.905 25.5258ZM175.849 26.2806L177.063 27.8703L177.081 27.8566L177.099 27.8424L175.849 26.2806ZM172.956 27.8183L173.588 29.7156L173.596 29.7132L173.603 29.7106L172.956 27.8183ZM165.869 4.32043L164.641 5.89913L164.65 5.90641L164.659 5.91358L165.869 4.32043ZM165.757 3.53763L167.237 4.88298L167.294 4.82007L167.345 4.75253L165.757 3.53763ZM166.665 2.34946L165.077 1.13456L165.077 1.13456L166.665 2.34946ZM167.448 2.23763L168.617 0.614948L168.602 0.603954L168.586 0.59325L167.448 2.23763ZM169.699 3.85914L168.529 5.48183L169.699 6.32419L170.868 5.48183L169.699 3.85914ZM171.949 2.23763L170.811 0.59325L170.795 0.603954L170.78 0.614948L171.949 2.23763ZM172.732 2.36344L174.323 1.15135L174.317 1.14343L174.311 1.13556L172.732 2.36344ZM173.627 3.53763L175.227 2.33763L175.222 2.33157L175.217 2.32555L173.627 3.53763ZM173.515 4.32043L172.3 2.73171L172.299 2.73253L173.515 4.32043ZM170.412 6.69677L169.196 5.10887L169.174 5.12529L169.153 5.14228L170.412 6.69677ZM169 6.69677L170.258 5.14228L170.234 5.12257L170.209 5.10363L169 6.69677ZM169.615 26.3495C168.061 26.3495 166.683 25.9789 165.436 25.252L163.421 28.7071C165.306 29.8068 167.385 30.3495 169.615 30.3495V26.3495ZM165.441 25.2546C164.181 24.5153 163.198 23.5283 162.468 22.2707L159.009 24.2798C160.086 26.1348 161.564 27.6174 163.416 28.7045L165.441 25.2546ZM162.472 22.2785C161.759 21.0374 161.396 19.6731 161.396 18.1452H157.396C157.396 20.3448 157.929 22.4006 159.004 24.272L162.472 22.2785ZM161.396 18.1452C161.396 16.6172 161.759 15.2529 162.472 14.0118L159.004 12.0183C157.929 13.8897 157.396 15.9455 157.396 18.1452H161.396ZM162.468 14.0196C163.196 12.7656 164.174 11.7921 165.425 11.0726L163.432 7.60478C161.571 8.6746 160.089 10.1519 159.009 12.0105L162.468 14.0196ZM165.433 11.0681C166.667 10.3515 168.046 9.98279 169.615 9.98279V5.98279C167.381 5.98279 165.303 6.51802 163.424 7.60928L165.433 11.0681ZM169.615 9.98279C170.562 9.98279 171.451 10.1274 172.29 10.4097L173.565 6.6183C172.298 6.19234 170.978 5.98279 169.615 5.98279V9.98279ZM172.295 10.4113C173.163 10.7006 173.929 11.1014 174.607 11.6097L177.007 8.40968C175.97 7.63197 174.817 7.03563 173.56 6.61661L172.295 10.4113ZM174.592 11.5984C174.508 11.5337 174.366 11.4049 174.245 11.1914C174.117 10.9651 174.045 10.7005 174.045 10.429H178.045C178.045 9.48911 177.534 8.8125 177.022 8.42096L174.592 11.5984ZM174.045 10.429C174.045 10.0048 174.215 9.70867 174.32 9.57305L177.49 12.0119C177.781 11.634 178.045 11.0956 178.045 10.429H174.045ZM174.316 9.57813L172.051 12.5416L175.23 14.9703L177.494 12.0068L174.316 9.57813ZM172.097 12.4845C172.195 12.3647 172.57 11.9935 173.221 11.9935V15.9935C174.17 15.9935 174.825 15.464 175.184 15.0273L172.097 12.4845ZM173.221 11.9935C173.588 11.9935 173.856 12.1265 173.996 12.2234L171.719 15.5121C172.102 15.7767 172.612 15.9935 173.221 15.9935V11.9935ZM173.989 12.2187C173.357 11.7845 172.671 11.4457 171.939 11.2016L170.674 14.9963C171.06 15.1249 171.408 15.2987 171.726 15.5168L173.989 12.2187ZM171.967 11.2112C171.204 10.9444 170.418 10.8054 169.615 10.8054V14.8054C169.949 14.8054 170.29 14.8621 170.645 14.9866L171.967 11.2112ZM169.615 10.8054C168.34 10.8054 167.138 11.1461 166.047 11.8087L168.123 15.2279C168.597 14.9399 169.082 14.8054 169.615 14.8054V10.8054ZM166.062 11.7997C164.974 12.4472 164.106 13.3418 163.467 14.4445L166.928 16.4502C167.239 15.9127 167.63 15.5212 168.108 15.2369L166.062 11.7997ZM163.459 14.4593C162.813 15.595 162.499 16.842 162.499 18.1591H166.499C166.499 17.5007 166.65 16.9398 166.936 16.4353L163.459 14.4593ZM162.499 18.1591C162.499 19.4763 162.813 20.7233 163.459 21.859L166.936 19.8829C166.65 19.3785 166.499 18.8176 166.499 18.1591H162.499ZM163.467 21.8738C164.104 22.9732 164.967 23.8682 166.047 24.5236L168.123 21.1044C167.636 20.8092 167.241 20.4089 166.928 19.8681L163.467 21.8738ZM166.056 24.529C167.148 25.1844 168.345 25.5269 169.615 25.5269V21.5269C169.095 21.5269 168.606 21.3941 168.114 21.099L166.056 24.529ZM169.615 25.5269C170.416 25.5269 171.198 25.4288 171.928 25.1902L170.685 21.3883C170.445 21.4665 170.099 21.5269 169.615 21.5269V25.5269ZM171.949 25.183C172.678 24.9356 173.38 24.5432 174.051 24.0622L171.721 20.8109C171.274 21.1313 170.922 21.3074 170.663 21.3955L171.949 25.183ZM173.967 24.1189C173.865 24.1849 173.62 24.3108 173.263 24.3108V20.3108C172.664 20.3108 172.168 20.5205 171.804 20.7542L173.967 24.1189ZM173.263 24.3108C172.992 24.3108 172.727 24.2385 172.501 24.1102C172.287 23.9892 172.158 23.8479 172.094 23.7633L175.271 21.3335C174.88 20.8215 174.203 20.3108 173.263 20.3108V24.3108ZM172.08 23.7448L174.302 26.7222L177.508 24.3294L175.285 21.352L172.08 23.7448ZM174.257 26.6589C174.246 26.6422 174.202 26.5772 174.159 26.4668C174.115 26.3559 174.059 26.1661 174.059 25.9172H178.059C178.059 25.2207 177.756 24.6872 177.553 24.3927L174.257 26.6589ZM174.059 25.9172C174.059 25.2351 174.452 24.8368 174.6 24.7189L177.099 27.8424C177.525 27.5008 178.059 26.8602 178.059 25.9172H174.059ZM174.636 24.691C173.945 25.218 173.173 25.6301 172.308 25.926L173.603 29.7106C174.863 29.2795 176.02 28.6666 177.063 27.8703L174.636 24.691ZM172.323 25.9209C171.473 26.2044 170.573 26.3495 169.615 26.3495V30.3495C170.986 30.3495 172.314 30.1405 173.588 29.7156L172.323 25.9209ZM167.096 2.74172C167.162 2.79289 167.293 2.90893 167.409 3.10998C167.535 3.32558 167.617 3.59416 167.617 3.8871H163.617C163.617 4.85848 164.165 5.52883 164.641 5.89913L167.096 2.74172ZM167.617 3.8871C167.617 4.06597 167.584 4.25726 167.509 4.44466C167.435 4.63012 167.334 4.77588 167.237 4.88298L164.277 2.19229C163.872 2.63804 163.617 3.22644 163.617 3.8871H167.617ZM167.345 4.75253L168.254 3.56436L165.077 1.13456L164.168 2.32273L167.345 4.75253ZM168.254 3.56437C168.189 3.64896 168.06 3.79031 167.847 3.91128C167.621 4.03954 167.356 4.11183 167.085 4.11183V0.111828C166.145 0.111828 165.468 0.622553 165.077 1.13456L168.254 3.56437ZM167.085 4.11183C166.718 4.11183 166.45 3.97889 166.31 3.88202L168.586 0.59325C168.204 0.328632 167.694 0.111828 167.085 0.111828V4.11183ZM166.279 3.86032L168.529 5.48183L170.868 2.23645L168.617 0.614948L166.279 3.86032ZM170.868 5.48183L173.118 3.86032L170.78 0.614948L168.529 2.23645L170.868 5.48183ZM173.088 3.88202C172.979 3.95703 172.705 4.11183 172.299 4.11183V0.111828C171.669 0.111828 171.161 0.350492 170.811 0.59325L173.088 3.88202ZM172.299 4.11183C172.006 4.11183 171.737 4.0295 171.521 3.90431C171.32 3.78757 171.204 3.6571 171.153 3.59132L174.311 1.13556C173.94 0.659451 173.27 0.111828 172.299 0.111828V4.11183ZM171.141 3.57553L172.036 4.74972L175.217 2.32555L174.323 1.15135L171.141 3.57553ZM172.027 4.73763C171.892 4.55871 171.752 4.26321 171.752 3.8871H175.752C175.752 3.26869 175.529 2.74022 175.227 2.33763L172.027 4.73763ZM171.752 3.8871C171.752 3.6412 171.814 3.38766 171.939 3.15957C172.059 2.94174 172.203 2.80545 172.3 2.73171L174.73 5.90915C175.278 5.48992 175.752 4.79908 175.752 3.8871H171.752ZM172.299 2.73253L169.196 5.10887L171.627 8.28468L174.731 5.90833L172.299 2.73253ZM169.153 5.14228C169.234 5.07664 169.334 5.01953 169.446 4.98145C169.556 4.94399 169.65 4.93441 169.713 4.93441V8.93441C170.405 8.93441 171.091 8.71982 171.67 8.25126L169.153 5.14228ZM169.713 4.93441C169.763 4.93441 169.85 4.94186 169.957 4.97763C170.067 5.01427 170.171 5.0714 170.258 5.14228L167.741 8.25127C168.333 8.73001 169.029 8.93441 169.713 8.93441V4.93441ZM170.209 5.10363L167.078 2.72728L164.659 5.91358L167.791 8.28992L170.209 5.10363ZM196.449 27.329L194.785 28.4379L194.785 28.4384L196.449 27.329ZM196.435 27.9161L197.545 29.5802L197.606 29.5397L197.663 29.4948L196.435 27.9161ZM190.662 27.6366L192.366 26.5884L192.356 26.5719L192.345 26.5557L190.662 27.6366ZM185.993 20.3677L187.676 19.2869L186.218 17.0171L184.47 19.0717L185.993 20.3677ZM183.841 22.8979L182.318 21.6018L181.841 22.1621V22.8979H183.841ZM183.841 16.0624H181.841V21.7367L185.399 17.3164L183.841 16.0624ZM189.782 8.68172L188.24 7.40796L188.232 7.41776L188.224 7.42766L189.782 8.68172ZM195.597 9.04516L194.078 7.74356L194.072 7.75111L195.597 9.04516ZM189.25 16.5237L187.726 15.2296L186.751 16.3785L187.586 17.6326L189.25 16.5237ZM194.785 28.4384C194.686 28.289 194.561 28.0213 194.561 27.6645H198.561C198.561 27.0841 198.362 26.5927 198.114 26.2196L194.785 28.4384ZM194.561 27.6645C194.561 27.4347 194.61 27.1708 194.741 26.9099C194.87 26.6512 195.045 26.4637 195.208 26.3374L197.663 29.4948C198.214 29.0668 198.561 28.41 198.561 27.6645H194.561ZM195.326 26.252C195.693 26.0073 196.019 26 196.086 26V30C196.451 30 197.01 29.9367 197.545 29.5802L195.326 26.252ZM196.086 26H191.333V30H196.086V26ZM191.333 26C191.459 26 191.667 26.0274 191.894 26.1506C192.126 26.276 192.279 26.4472 192.366 26.5884L188.959 28.6848C189.493 29.5523 190.381 30 191.333 30V26ZM192.345 26.5557L187.676 19.2869L184.311 21.4486L188.98 28.7174L192.345 26.5557ZM184.47 19.0717L182.318 21.6018L185.364 24.1939L187.517 21.6638L184.47 19.0717ZM181.841 22.8979V27.4409H185.841V22.8979H181.841ZM181.841 27.4409C181.841 27.319 181.873 26.8602 182.287 26.446C182.701 26.0318 183.16 26 183.282 26V30C183.776 30 184.515 29.875 185.115 29.2744C185.716 28.6739 185.841 27.9355 185.841 27.4409H181.841ZM183.282 26H179.368V30H183.282V26ZM179.368 26C179.49 26 179.948 26.0318 180.363 26.446C180.777 26.8602 180.809 27.319 180.809 27.4409H176.809C176.809 27.9355 176.934 28.6739 177.534 29.2744C178.135 29.875 178.873 30 179.368 30V26ZM180.809 27.4409V8.91935H176.809V27.4409H180.809ZM180.809 8.91935C180.809 9.04126 180.777 9.50004 180.363 9.91421C179.948 10.3284 179.49 10.3602 179.368 10.3602V6.36022C178.873 6.36022 178.135 6.48524 177.534 7.08579C176.934 7.68634 176.809 8.42468 176.809 8.91935H180.809ZM179.368 10.3602H183.282V6.36022H179.368V10.3602ZM183.282 10.3602C183.16 10.3602 182.701 10.3284 182.287 9.91421C181.873 9.50004 181.841 9.04126 181.841 8.91935H185.841C185.841 8.42468 185.716 7.68633 185.115 7.08579C184.515 6.48524 183.776 6.36022 183.282 6.36022V10.3602ZM181.841 8.91935V16.0624H185.841V8.91935H181.841ZM185.399 17.3164L191.34 9.93578L188.224 7.42766L182.283 14.8083L185.399 17.3164ZM191.324 9.95548C191.243 10.0526 191.115 10.1667 190.936 10.2511C190.756 10.3353 190.588 10.3602 190.467 10.3602V6.36022C189.594 6.36022 188.799 6.73071 188.24 7.40796L191.324 9.95548ZM190.467 10.3602H195.289V6.36022H190.467V10.3602ZM195.289 10.3602C195.222 10.3602 194.896 10.3529 194.529 10.1082L196.748 6.77999C196.213 6.42347 195.655 6.36022 195.289 6.36022V10.3602ZM194.529 10.1082C194.33 9.97514 194.118 9.77033 193.965 9.48121C193.813 9.19343 193.764 8.9094 193.764 8.68172H197.764C197.764 7.92417 197.4 7.21434 196.748 6.77999L194.529 10.1082ZM193.764 8.68172C193.764 8.11773 194.039 7.78939 194.078 7.74358L197.115 10.3467C197.378 10.04 197.764 9.46936 197.764 8.68172H193.764ZM194.072 7.75111L187.726 15.2296L190.775 17.8177L197.122 10.3392L194.072 7.75111ZM187.586 17.6326L194.785 28.4379L198.114 26.2201L190.915 15.4148L187.586 17.6326ZM202.052 27.4409C202.052 27.319 202.084 26.8602 202.498 26.446C202.912 26.0318 203.371 26 203.493 26V30C203.987 30 204.726 29.875 205.326 29.2744C205.927 28.6739 206.052 27.9355 206.052 27.4409H202.052ZM203.493 26H199.579V30H203.493V26ZM199.579 26C199.701 26 200.159 26.0318 200.573 26.446C200.988 26.8602 201.019 27.319 201.019 27.4409H197.019C197.019 27.9355 197.145 28.6739 197.745 29.2744C198.346 29.875 199.084 30 199.579 30V26ZM201.019 27.4409V8.91935H197.019V27.4409H201.019ZM201.019 8.91935C201.019 9.04126 200.988 9.50004 200.573 9.91421C200.159 10.3284 199.701 10.3602 199.579 10.3602V6.36022C199.084 6.36022 198.346 6.48524 197.745 7.08579C197.145 7.68634 197.019 8.42468 197.019 8.91935H201.019ZM199.579 10.3602H203.493V6.36022H199.579V10.3602ZM203.493 10.3602C203.371 10.3602 202.912 10.3284 202.498 9.91421C202.084 9.50004 202.052 9.04126 202.052 8.91935H206.052C206.052 8.42468 205.927 7.68633 205.326 7.08579C204.726 6.48524 203.987 6.36022 203.493 6.36022V10.3602ZM202.052 8.91935V27.4409H206.052V8.91935H202.052Z" fill="#346CD4" mask="url(#path-6-outside-1_11639_3621)"/>
<path d="M65.2338 76.3763C63.1966 76.3763 61.3349 75.8846 59.6489 74.9011C57.9729 73.9176 56.6482 72.5878 55.6747 70.9118C54.7113 69.2358 54.2295 67.3943 54.2295 65.3871C54.2295 63.3799 54.7113 61.5384 55.6747 59.8624C56.6482 58.1864 57.9729 56.8667 59.6489 55.9032C61.3249 54.9297 63.1865 54.443 65.2338 54.443C67.2711 54.443 69.1278 54.9297 70.8037 55.9032C72.4797 56.8767 73.7994 58.2014 74.7629 59.8774C75.7364 61.5434 76.2231 63.3799 76.2231 65.3871C76.2231 67.3842 75.7364 69.2258 74.7629 70.9118C73.7994 72.5878 72.4747 73.9176 70.7887 74.9011C69.1127 75.8846 67.2611 76.3763 65.2338 76.3763ZM65.2338 71.1828C66.2073 71.1828 67.1156 70.9319 67.9586 70.4301C68.8016 69.9183 69.474 69.2208 69.9758 68.3376C70.4776 67.4444 70.7285 66.4659 70.7285 65.4022C70.7285 64.3384 70.4726 63.3649 69.9607 62.4817C69.4589 61.5986 68.7865 60.9061 67.9435 60.4043C67.1005 59.8925 66.1973 59.6366 65.2338 59.6366C64.2604 59.6366 63.3521 59.8925 62.5091 60.4043C61.6661 60.9061 60.9887 61.5986 60.4769 62.4817C59.9751 63.3649 59.7242 64.3384 59.7242 65.4022C59.7242 66.4659 59.9751 67.4394 60.4769 68.3226C60.9887 69.2057 61.6661 69.9032 62.5091 70.4151C63.3622 70.9269 64.2704 71.1828 65.2338 71.1828ZM79.9753 76C79.5739 76 79.3732 75.7993 79.3732 75.3978V55.4516C79.3732 55.0502 79.5739 54.8495 79.9753 54.8495H88.5108C89.966 54.8495 91.2556 55.1556 92.3796 55.7677C93.5036 56.3699 94.3767 57.2179 94.999 58.3118C95.6312 59.3957 95.9473 60.6401 95.9473 62.0452C95.9473 63.39 95.6714 64.5441 95.1194 65.5075C94.5674 66.4609 93.7947 67.2387 92.8011 67.8409L96.5344 75.2925C96.5947 75.4129 96.6248 75.5183 96.6248 75.6086C96.6248 75.729 96.5746 75.8244 96.4742 75.8946C96.3839 75.9649 96.2585 76 96.0979 76H91.2807C90.9495 76 90.7137 75.8495 90.5732 75.5484L87.6226 69.2409C87.4721 69.2509 87.2563 69.2559 86.9753 69.2559H84.7925V75.3978C84.7925 75.7993 84.5918 76 84.1904 76H79.9753ZM88.014 64.6645C88.4757 64.6645 88.8921 64.5441 89.2635 64.3032C89.6348 64.0624 89.9258 63.7412 90.1366 63.3398C90.3473 62.9384 90.4527 62.5118 90.4527 62.0602C90.4527 61.2674 90.2219 60.6602 89.7602 60.2387C89.2986 59.8072 88.7316 59.5914 88.0592 59.5914H84.7925V64.6645H88.014ZM108.602 75.3978C108.602 75.7993 108.401 76 108 76H103.785C103.383 76 103.183 75.7993 103.183 75.3978V59.8925H98.1095C97.7081 59.8925 97.5074 59.6918 97.5074 59.2903V55.4516C97.5074 55.0502 97.7081 54.8495 98.1095 54.8495H113.69C114.092 54.8495 114.292 55.0502 114.292 55.4516V59.2903C114.292 59.6918 114.092 59.8925 113.69 59.8925H108.602V75.3978ZM122.335 75.3978C122.335 75.7993 122.135 76 121.733 76H117.518C117.117 76 116.916 75.7993 116.916 75.3978V55.4516C116.916 55.0502 117.117 54.8495 117.518 54.8495H130.811C131.212 54.8495 131.413 55.0502 131.413 55.4516V59.1398C131.413 59.5412 131.212 59.7419 130.811 59.7419H122.335V64.243H128.643C129.044 64.243 129.245 64.4437 129.245 64.8452V68.2323C129.245 68.6337 129.044 68.8344 128.643 68.8344H122.335V75.3978ZM143.546 76.3763C141.509 76.3763 139.647 75.8846 137.961 74.9011C136.285 73.9176 134.961 72.5878 133.987 70.9118C133.024 69.2358 132.542 67.3943 132.542 65.3871C132.542 63.3799 133.024 61.5384 133.987 59.8624C134.961 58.1864 136.285 56.8667 137.961 55.9032C139.637 54.9297 141.499 54.443 143.546 54.443C145.584 54.443 147.44 54.9297 149.116 55.9032C150.792 56.8767 152.112 58.2014 153.075 59.8774C154.049 61.5434 154.536 63.3799 154.536 65.3871C154.536 67.3842 154.049 69.2258 153.075 70.9118C152.112 72.5878 150.787 73.9176 149.101 74.9011C147.425 75.8846 145.574 76.3763 143.546 76.3763ZM143.546 71.1828C144.52 71.1828 145.428 70.9319 146.271 70.4301C147.114 69.9183 147.786 69.2208 148.288 68.3376C148.79 67.4444 149.041 66.4659 149.041 65.4022C149.041 64.3384 148.785 63.3649 148.273 62.4817C147.771 61.5986 147.099 60.9061 146.256 60.4043C145.413 59.8925 144.51 59.6366 143.546 59.6366C142.573 59.6366 141.665 59.8925 140.822 60.4043C139.979 60.9061 139.301 61.5986 138.789 62.4817C138.288 63.3649 138.037 64.3384 138.037 65.4022C138.037 66.4659 138.288 67.4394 138.789 68.3226C139.301 69.2057 139.979 69.9032 140.822 70.4151C141.675 70.9269 142.583 71.1828 143.546 71.1828ZM171.866 75.3978C171.866 75.7993 171.666 76 171.264 76H158.288C157.886 76 157.686 75.7993 157.686 75.3978V55.4516C157.686 55.0502 157.886 54.8495 158.288 54.8495H162.503C162.904 54.8495 163.105 55.0502 163.105 55.4516V70.8215H171.264C171.666 70.8215 171.866 71.0222 171.866 71.4237V75.3978ZM179.812 75.3978C179.812 75.7993 179.611 76 179.21 76H174.995C174.593 76 174.393 75.7993 174.393 75.3978V55.4516C174.393 55.0502 174.593 54.8495 174.995 54.8495H179.21C179.611 54.8495 179.812 55.0502 179.812 55.4516V75.3978ZM193.968 76.3763C191.931 76.3763 190.069 75.8846 188.383 74.9011C186.707 73.9176 185.383 72.5878 184.409 70.9118C183.446 69.2358 182.964 67.3943 182.964 65.3871C182.964 63.3799 183.446 61.5384 184.409 59.8624C185.383 58.1864 186.707 56.8667 188.383 55.9032C190.059 54.9297 191.921 54.443 193.968 54.443C196.005 54.443 197.862 54.9297 199.538 55.9032C201.214 56.8767 202.534 58.2014 203.497 59.8774C204.471 61.5434 204.957 63.3799 204.957 65.3871C204.957 67.3842 204.471 69.2258 203.497 70.9118C202.534 72.5878 201.209 73.9176 199.523 74.9011C197.847 75.8846 195.995 76.3763 193.968 76.3763ZM193.968 71.1828C194.942 71.1828 195.85 70.9319 196.693 70.4301C197.536 69.9183 198.208 69.2208 198.71 68.3376C199.212 67.4444 199.463 66.4659 199.463 65.4022C199.463 64.3384 199.207 63.3649 198.695 62.4817C198.193 61.5986 197.521 60.9061 196.678 60.4043C195.835 59.8925 194.932 59.6366 193.968 59.6366C192.995 59.6366 192.087 59.8925 191.243 60.4043C190.4 60.9061 189.723 61.5986 189.211 62.4817C188.709 63.3649 188.459 64.3384 188.459 65.4022C188.459 66.4659 188.709 67.4394 189.211 68.3226C189.723 69.2057 190.4 69.9032 191.243 70.4151C192.097 70.9269 193.005 71.1828 193.968 71.1828Z" fill="#346CD4"/>
<defs>
<clipPath id="clip0_11639_3621">
<rect width="63" height="76" fill="white"/>
</clipPath>
</defs>
</svg>
