<svg width="59" height="73" viewBox="0 0 59 73" fill="none" xmlns="http://www.w3.org/2000/svg">
<g clip-path="url(#clip0_11673_3579)">
<path d="M45.8004 0.912109H24.4375V10.5303H39.5596C41.8111 10.5303 43.6401 12.3626 43.6401 14.618C43.6401 16.8735 41.8111 18.7058 39.5596 18.7058H24.4375V27.3621H45.8004C53.0926 27.3621 59.0022 21.4421 59.0022 14.1371C59.0022 6.83211 53.0926 0.912109 45.8004 0.912109Z" fill="#346CD4"/>
<path d="M27.8438 37.5201V35.0957H41.0618V37.5201H27.8438Z" stroke="#346CD4" stroke-width="2"/>
<path d="M30.1957 52.026L30.1808 52.077L30.1713 52.1293C30.0552 52.7724 30.0748 53.7383 30.4701 54.69C30.8117 55.5122 31.4303 56.3099 32.4357 56.8544V67.5883L25.6059 52.9855C27.1667 51.0178 29.5518 46.8574 29.8412 41.8613H39.0897C39.2102 43.2918 39.5129 45.1823 40.0971 47.0872C40.7456 49.2017 41.7745 51.4441 43.3839 53.0661L36.4712 67.644V56.862C37.4844 56.3304 38.1125 55.5577 38.4563 54.7301C38.8537 53.7736 38.8484 52.806 38.7379 52.1427L38.725 52.065L38.7 51.9903C38.3574 50.9643 37.8687 50.1274 37.1717 49.5483C36.4566 48.9543 35.6113 48.7053 34.7079 48.7053C33.5707 48.7053 30.9862 49.3259 30.1957 52.026Z" stroke="#346CD4" stroke-width="2"/>
<path d="M35.7222 53.0904C35.7222 53.8069 35.1558 54.3936 34.4549 54.3936C33.754 54.3936 33.1875 53.8117 33.1875 53.0904C33.1875 52.369 33.754 51.7871 34.4549 51.7871C35.1558 51.7871 35.7222 52.3738 35.7222 53.0904Z" fill="#346CD4"/>
<path d="M0.432168 0.912109H20.1148V72.0867H5.71288C-2.24179 72.0867 0.432168 64.6326 0.432168 56.2119V30.7285V0.912109Z" fill="#346CD4"/>
</g>
<defs>
<clipPath id="clip0_11673_3579">
<rect width="59" height="71.1746" fill="white" transform="translate(0 0.912109)"/>
</clipPath>
</defs>
</svg>
