<svg width="25" height="25" viewBox="0 0 25 25" fill="none" xmlns="http://www.w3.org/2000/svg">
<g id="Frame" clip-path="url(#clip0_8560_2040)">
<path id="Vector" d="M19.7943 4.16602C20.6231 4.16602 21.4179 4.49526 22.004 5.08131C22.59 5.66736 22.9193 6.46221 22.9193 7.29102V17.7077C22.9193 18.5365 22.59 19.3313 22.004 19.9174C21.4179 20.5034 20.6231 20.8327 19.7943 20.8327H5.21094C4.38214 20.8327 3.58728 20.5034 3.00123 19.9174C2.41518 19.3313 2.08594 18.5365 2.08594 17.7077V7.29102C2.08594 6.46221 2.41518 5.66736 3.00123 5.08131C3.58728 4.49526 4.38214 4.16602 5.21094 4.16602H19.7943ZM6.26302 7.29102L6.13073 7.29831C5.86709 7.32967 5.62537 7.46051 5.45496 7.66411C5.28456 7.8677 5.19832 8.12869 5.21388 8.39373C5.22944 8.65877 5.34562 8.90787 5.53868 9.09013C5.73174 9.27239 5.9871 9.37405 6.2526 9.37435L6.3849 9.36706C6.64854 9.3357 6.89026 9.20485 7.06066 9.00126C7.23107 8.79766 7.3173 8.53668 7.30174 8.27164C7.28618 8.00659 7.17 7.75749 6.97695 7.57523C6.78389 7.39297 6.52852 7.29131 6.26302 7.29102ZM9.38802 7.29102L9.25573 7.29831C8.99209 7.32967 8.75037 7.46051 8.57996 7.66411C8.40956 7.8677 8.32332 8.12869 8.33888 8.39373C8.35444 8.65877 8.47062 8.90787 8.66368 9.09013C8.85674 9.27239 9.1121 9.37405 9.3776 9.37435L9.5099 9.36706C9.77354 9.3357 10.0153 9.20485 10.1857 9.00126C10.3561 8.79766 10.4423 8.53668 10.4267 8.27164C10.4112 8.00659 10.295 7.75749 10.1019 7.57523C9.90889 7.39297 9.65352 7.29131 9.38802 7.29102Z" fill="white"/>
</g>
<defs>
<clipPath id="clip0_8560_2040">
<rect width="25" height="25" fill="white"/>
</clipPath>
</defs>
</svg>
