<svg width="60" height="61" viewBox="0 0 60 61" fill="none" xmlns="http://www.w3.org/2000/svg">
<g clip-path="url(#clip0_7269_2229)">
<path d="M40.208 5.5H30.0005C29.3375 5.5 28.7016 5.76339 28.2327 6.23223C27.7639 6.70107 27.5005 7.33696 27.5005 8V36.75C27.5008 37.3729 27.346 37.986 27.0499 38.5341C26.7539 39.0821 26.326 39.5478 25.8049 39.889C25.2838 40.2303 24.6859 40.4364 24.0653 40.4886C23.4446 40.5409 22.8206 40.4378 22.2498 40.1885C21.679 39.9392 21.1792 39.5517 20.7957 39.0609C20.4122 38.5701 20.1569 37.9915 20.053 37.3773C19.9491 36.7631 19.9999 36.1328 20.2007 35.5431C20.4014 34.9535 20.7459 34.4231 21.203 34L21.503 33.75C21.813 33.5169 22.0646 33.2148 22.2377 32.8677C22.4108 32.5206 22.5008 32.1379 22.5005 31.75V20.935C22.5008 20.5576 22.4157 20.1851 22.2515 19.8453C22.0873 19.5055 21.8484 19.2073 21.5525 18.9731C21.2567 18.7388 20.9116 18.5745 20.5433 18.4926C20.1749 18.4107 19.7928 18.4132 19.4255 18.5C14.9482 19.5552 11.015 22.2194 8.37423 25.9859C5.73344 29.7523 4.56934 34.3581 5.10341 38.9269C5.63747 43.4958 7.83242 47.7089 11.2707 50.7647C14.7089 53.8206 19.1505 55.5059 23.7505 55.5L24.358 55.4875C29.2226 55.3298 33.8353 53.2867 37.2209 49.79C40.6065 46.2933 42.4998 41.6172 42.5005 36.75V30L43.278 30.3825C46.083 31.7075 49.1105 32.5525 52.253 32.865C52.6007 32.8996 52.9517 32.8609 53.2835 32.7515C53.6153 32.6421 53.9205 32.4643 54.1793 32.2297C54.4382 31.9951 54.645 31.7088 54.7865 31.3894C54.9279 31.0699 55.0008 30.7244 55.0005 30.375V20.2925C55.0004 19.7015 54.791 19.1296 54.4093 18.6783C54.0276 18.227 53.4983 17.9256 52.9155 17.8275C50.3572 17.3934 47.9972 16.1747 46.1621 14.3401C44.327 12.5055 43.1077 10.1457 42.673 7.5875C42.5754 7.00421 42.2742 6.47439 41.8229 6.09219C41.3716 5.71 40.7994 5.50017 40.208 5.5Z" fill="white"/>
</g>
<defs>
<clipPath id="clip0_7269_2229">
<rect width="60" height="60" fill="white" transform="translate(0 0.5)"/>
</clipPath>
</defs>
</svg>
