<svg width="60" height="61" viewBox="0 0 60 61" fill="none" xmlns="http://www.w3.org/2000/svg">
<g clip-path="url(#clip0_7269_2221)">
<path d="M45 8C46.6415 8 48.267 8.32332 49.7836 8.95151C51.3001 9.57969 52.6781 10.5004 53.8388 11.6612C54.9996 12.8219 55.9203 14.1999 56.5485 15.7165C57.1767 17.233 57.5 18.8585 57.5 20.5V40.5C57.5 42.1415 57.1767 43.767 56.5485 45.2835C55.9203 46.8001 54.9996 48.1781 53.8388 49.3388C52.6781 50.4996 51.3001 51.4203 49.7836 52.0485C48.267 52.6767 46.6415 53 45 53H15C13.3585 53 11.733 52.6767 10.2165 52.0485C8.69989 51.4203 7.3219 50.4996 6.16117 49.3388C3.81696 46.9946 2.5 43.8152 2.5 40.5V20.5C2.5 17.1848 3.81696 14.0054 6.16117 11.6612C8.50537 9.31696 11.6848 8 15 8H45ZM22.5 23V38C22.5004 38.4421 22.6179 38.8762 22.8408 39.2581C23.0636 39.6399 23.3837 39.9559 23.7685 40.1737C24.1532 40.3914 24.5889 40.5033 25.0309 40.4978C25.473 40.4924 25.9058 40.3698 26.285 40.1425L38.785 32.6425C39.1546 32.4202 39.4605 32.1061 39.6728 31.7307C39.8851 31.3553 39.9967 30.9313 39.9967 30.5C39.9967 30.0687 39.8851 29.6447 39.6728 29.2693C39.4605 28.8939 39.1546 28.5798 38.785 28.3575L26.285 20.8575C25.9058 20.6303 25.473 20.5076 25.0309 20.5022C24.5889 20.4967 24.1532 20.6086 23.7685 20.8263C23.3837 21.0441 23.0636 21.3601 22.8408 21.7419C22.6179 22.1238 22.5004 22.5579 22.5 23Z" fill="white"/>
</g>
<defs>
<clipPath id="clip0_7269_2221">
<rect width="60" height="60" fill="white" transform="translate(0 0.5)"/>
</clipPath>
</defs>
</svg>
